PathFileType  4	(X/Y/Z) C:\Users\antoi\Documents\MyRepositories\mobilecap\ResultsAnalysis
DataRate	CameraRate	NumFrames	NumMarkers	Units	OrigDataRate	OrigDataStartFrame	OrigNumFrames
100.0	100.0	4	51	mm	100.0	57	150
Frame#	Time	r_knee			r_shank_antsup			r_ankle			r_calc			r_5meta			r_toe			L_knee			L_shank_antsup			L_ankle			L_calc			L_5meta			L_toe			r_sh2			r_sh3			r_sh4			L_sh2			L_sh3			r_thigh1			r_thigh2			r_thigh3			r_thigh4			r_thigh5			L_thigh1			L_thigh2			L_thigh3			L_thigh4			r.ASIS			r.PSIS			L.ASIS			L.PSIS			C7			R_Shoulder			L_Shoulder			R_Sternum			L_Sternum			R_humerus			R_elbow_med			R_elbow_lat			R_forearm			R_wrist_radius			R_wrist_ulna			L_humerus			L_elbow_med			L_elbow_lat			L_forearm			L_wrist_radius			L_wrist_ulna			R_HJC			L_HJC			R_HJC_reg			L_HJC_reg			
		X1	Y1	Z1	X2	Y2	Z2	X3	Y3	Z3	X4	Y4	Z4	X5	Y5	Z5	X6	Y6	Z6	X7	Y7	Z7	X8	Y8	Z8	X9	Y9	Z9	X10	Y10	Z10	X11	Y11	Z11	X12	Y12	Z12	X13	Y13	Z13	X14	Y14	Z14	X15	Y15	Z15	X16	Y16	Z16	X17	Y17	Z17	X18	Y18	Z18	X19	Y19	Z19	X20	Y20	Z20	X21	Y21	Z21	X22	Y22	Z22	X23	Y23	Z23	X24	Y24	Z24	X25	Y25	Z25	X26	Y26	Z26	X27	Y27	Z27	X28	Y28	Z28	X29	Y29	Z29	X30	Y30	Z30	X31	Y31	Z31	X32	Y32	Z32	X33	Y33	Z33	X34	Y34	Z34	X35	Y35	Z35	X36	Y36	Z36	X37	Y37	Z37	X38	Y38	Z38	X39	Y39	Z39	X40	Y40	Z40	X41	Y41	Z41	X42	Y42	Z42	X43	Y43	Z43	X44	Y44	Z44	X45	Y45	Z45	X46	Y46	Z46	X47	Y47	Z47	X48	Y48	Z48	X49	Y49	Z49	X50	Y50	Z50	X51	Y51	Z51	

57	0.56000000	320.30987	460.36065	-64.33783	300.82595	387.95097	-44.64235	163.39030	115.37349	-101.55655	87.86152	94.80247	-143.16670	248.93327	41.88049	-78.40758	296.64099	55.45360	-132.77452	552.06328	477.33736	-367.65793	597.93323	429.92531	-377.91558	662.10294	123.26389	-377.12346	616.11407	63.78661	-326.92866	763.71608	108.73721	-413.59913	805.58231	150.55558	-364.55078	255.31319	284.51174	-46.79801	232.97282	415.49105	-62.77426	180.80989	313.20861	-70.34905	509.81813	411.13440	-383.88233	549.09218	295.80730	-395.51290	454.00423	760.42114	-58.21851	440.49516	647.12911	-52.57128	385.74245	633.42387	-17.64423	351.84383	772.12126	-5.71932	333.11070	657.13763	-20.03397	479.23947	758.18332	-380.88472	541.42824	631.56453	-385.07815	376.94724	708.33567	-378.30369	448.39855	581.14252	-376.91539	461.12692	909.75810	-72.77411	277.70076	927.03495	-148.29442	463.23276	899.99640	-333.44905	274.77877	910.94243	-253.87555	356.92870	1389.54648	-238.89515	440.98308	1347.77658	-93.65276	377.99755	1306.01484	-401.71680	465.08102	1295.66190	-229.26611	456.41275	1290.19651	-272.20669	510.83757	1129.22493	-0.82252	467.52293	1013.24733	-9.93127	511.27477	1047.38159	36.17173	591.00041	953.26864	31.98922	643.57960	847.76417	32.93622	615.89998	834.76431	65.82480	400.98955	1172.43353	-443.49042	348.94849	961.54831	-388.53500	352.83762	967.77177	-450.41328	419.63261	880.88258	-471.85344	464.47901	762.88382	-461.96464	432.93828	746.40845	-466.08039	396.87656	833.79895	-98.39621	399.72898	826.62700	-298.52979	396.93816	840.52053	-97.00036	392.23086	814.58643	-267.14435	
58	0.57000000	326.63920	460.21567	-64.18138	306.23182	388.02815	-44.45538	164.98502	117.30897	-101.54547	89.34643	97.79946	-143.10254	249.30800	42.03862	-78.38944	297.23513	55.07296	-132.66196	561.15666	474.70993	-367.66397	607.77411	429.17536	-378.24674	682.61331	124.71156	-381.16661	638.68351	62.73498	-331.84943	784.83142	114.25826	-417.20714	824.78181	157.43623	-367.73051	259.17591	285.23645	-46.60936	238.83677	416.50064	-62.91525	185.21912	314.99909	-70.48525	520.45638	407.52567	-384.93113	563.71105	293.76364	-397.89961	463.24666	759.01198	-57.74013	448.57500	646.09330	-51.77663	393.35096	632.84267	-17.49341	360.78239	771.83994	-6.38249	340.97197	656.98888	-20.50440	491.84388	756.03799	-379.52664	552.45390	628.61431	-383.63982	389.00510	707.40566	-379.56772	458.68497	579.47643	-378.05755	471.77271	908.63474	-72.52592	289.13544	926.34878	-150.01741	476.22149	898.35236	-333.29065	287.02036	909.90887	-255.57720	368.43794	1388.19631	-242.81809	453.17477	1347.76746	-97.58190	388.54109	1303.10643	-404.92991	476.63829	1294.43140	-232.88395	467.74811	1288.58438	-275.72007	522.70197	1129.55857	-3.66397	478.99107	1013.65698	-12.04122	522.93716	1047.88260	33.79930	602.56160	953.60686	29.68273	655.07889	848.05810	30.82775	627.37122	835.15604	63.81157	411.38303	1169.29431	-445.91648	360.62407	958.60647	-389.10389	363.76672	964.47230	-451.03939	430.30785	877.55562	-472.87785	475.25063	759.58369	-463.07217	443.74900	743.07271	-466.35793	407.49434	832.82795	-98.72461	412.22681	825.20775	-298.80380	407.59912	839.73825	-97.07864	404.18928	813.23419	-267.25640	
59	0.58000000	333.08958	460.09349	-64.07803	311.74715	388.15870	-44.30758	166.68446	119.32625	-101.50758	90.92367	100.95231	-143.02724	249.73444	42.22383	-78.37614	297.94238	54.72429	-132.53582	570.62282	472.15619	-367.98951	617.76944	428.29884	-378.71769	701.65221	125.86964	-384.83384	659.40895	61.71287	-336.49269	804.15887	119.16012	-420.22953	842.32023	163.46762	-370.27031	263.14828	286.04384	-46.43961	244.82844	417.55774	-63.11824	189.75961	316.86693	-70.64310	531.24136	404.25242	-386.40958	577.87764	291.97118	-400.52307	472.65874	757.56069	-57.39098	456.82815	645.00732	-51.10492	401.11859	632.26185	-17.44295	369.92772	771.56255	-7.14822	349.00719	656.86480	-21.07384	504.92669	754.03765	-378.02954	564.00920	625.86020	-382.09223	401.67297	706.61734	-381.16718	469.61896	578.00100	-379.53152	482.56297	907.49202	-72.37569	300.71943	925.63423	-151.89903	489.31823	896.65516	-333.15179	299.41904	908.82051	-257.43162	380.07664	1386.78184	-246.87768	465.44361	1347.68261	-101.61868	399.30035	1300.09700	-408.24649	488.36264	1293.15192	-236.60139	479.24819	1286.91146	-279.32957	534.56280	1129.78225	-6.60411	490.29004	1013.99848	-14.12180	534.53228	1048.30637	31.36700	613.93246	953.75730	27.27643	666.24611	848.10072	28.63889	638.55180	835.35982	61.77316	421.96985	1166.06339	-448.44889	372.31946	955.64770	-389.86423	374.84543	961.11689	-451.80284	441.11715	874.14392	-474.03922	486.21159	756.24799	-464.15363	454.63376	739.67141	-466.75543	418.22843	831.83794	-99.15431	424.87559	823.73342	-299.15989	418.37715	838.96703	-97.24091	416.27836	811.85754	-267.39741	
60	0.59000000	339.71574	459.96451	-64.04215	317.41139	388.31922	-44.21099	168.49392	121.41633	-101.42942	92.60902	104.24223	-142.93025	250.21943	42.43256	-78.36549	298.71312	54.39224	-132.41860	580.55723	469.71929	-368.60904	628.04669	427.25744	-379.29665	719.02554	126.48481	-388.06426	678.03256	60.48433	-340.77119	821.56460	123.10237	-422.63017	858.13985	168.24464	-372.12163	267.26720	286.91333	-46.29609	250.99788	418.64854	-63.38492	194.47039	318.79454	-70.81898	542.25236	401.37428	-388.29274	591.58776	290.36620	-403.34463	482.27205	756.04671	-57.20444	465.28557	643.82542	-50.60104	409.10215	631.65506	-17.51729	379.32070	771.25086	-8.01437	357.27746	656.72671	-21.74222	518.48420	752.21297	-376.46085	576.08982	623.33090	-380.47231	414.93584	705.98884	-383.02904	481.22061	576.72567	-381.24094	493.51716	906.31527	-72.37156	312.47155	924.87164	-153.90502	502.49288	894.92665	-333.08650	311.97052	907.68731	-259.40742	391.85280	1385.29617	-251.07317	477.79106	1347.53334	-105.76556	410.29001	1296.98858	-411.67045	500.27243	1291.82847	-240.41820	490.92395	1285.17574	-283.03597	546.42690	1129.90773	-9.63792	501.42846	1014.28478	-16.16335	546.07118	1048.67123	28.88487	625.10444	953.73575	24.77618	677.03643	847.89933	26.37482	649.45440	835.39535	59.72669	432.76889	1162.74353	-451.08237	384.05900	952.66747	-390.81830	386.08512	957.71097	-452.72032	452.05901	870.64126	-475.33075	497.32602	752.84789	-465.26096	465.60980	736.19930	-467.27638	429.11544	830.81188	-99.71541	437.65095	822.22071	-299.63095	429.30493	838.16951	-97.53819	428.49344	810.46607	-267.62774	
